<svg width="78" height="78" viewBox="0 0 78 78" fill="none" xmlns="http://www.w3.org/2000/svg">
<circle cx="39" cy="39" r="37.5" stroke="#64FFDA" stroke-width="3"/>
<path d="M27.9598 30.097C27.9598 28.9217 28.8208 28.334 30.5428 28.334C31.2808 28.334 32.6885 28.3613 34.7658 28.416C37.0618 28.5253 38.7975 28.58 39.9728 28.58C40.9295 28.58 42.0911 28.5253 43.4578 28.416C44.3871 28.3613 44.9748 28.334 45.2208 28.334C46.7241 28.3887 47.9951 28.662 49.0338 29.154C49.3345 29.2907 49.5805 29.4547 49.7718 29.646C49.9631 29.8373 50.0588 30.1517 50.0588 30.589C50.0588 31.1903 49.8675 31.7097 49.4848 32.147C49.1021 32.557 48.6375 32.762 48.0908 32.762C47.4895 32.762 46.6148 32.68 45.4668 32.516C44.4555 32.3247 43.5671 32.229 42.8018 32.229C42.0638 32.229 41.5035 32.2427 41.1208 32.27C41.0388 33.172 40.9978 35.3313 40.9978 38.748C40.9978 42.8207 41.1208 46.948 41.3668 51.13L41.4488 52.319C41.4488 53.4397 40.8065 54 39.5218 54C38.5105 54 37.8271 53.7677 37.4718 53.303C37.1165 52.811 36.9388 52.073 36.9388 51.089C36.9388 49.1483 36.8841 46.7293 36.7748 43.832C36.6655 41.4267 36.6108 39.7183 36.6108 38.707C36.6108 38.0237 36.6928 35.9327 36.8568 32.434L32.0598 32.475C30.5291 32.475 29.4631 32.3383 28.8618 32.065C28.2605 31.7643 27.9598 31.1083 27.9598 30.097Z" fill="#64FFDA"/>
</svg>
